<?xml version="1.0" encoding="UTF-8"?>
<svg data-name="Layer 1" version="1.1" viewBox="0 0 800 800" xmlns="http://www.w3.org/2000/svg" xmlns:xlink="http://www.w3.org/1999/xlink">
 <defs>
  <style>.cls-2{fill:url(#linear-gradient);}.cls-3{fill:url(#linear-gradient-2);}</style>
  <linearGradient id="linear-gradient" x1="204.69" x2="661.59" y1="398.96" y2="398.96" gradientUnits="userSpaceOnUse">
   <stop stop-color="#fff" offset="0"/>
   <stop stop-color="#fff" offset="1"/>
  </linearGradient>
  <linearGradient id="linear-gradient-2" x1="137.59" x2="333" y1="431.79" y2="431.79" xlink:href="#linear-gradient"/>
 </defs>
 <title>Felix</title>
 <path class="cls-2" d="M271.06,672c-1.46-5.64-4.25-11.3-4.17-16.92.56-40.37,13-77.5,31.92-112.77,19-35.48,37.82-71.11,56.88-106.59,9.76-18.18,15.47-36.45,5.95-56.77-6-12.71-15-22.44-27.5-27.89-21.18-9.2-42.7-17.66-64.35-25.67-21.14-7.82-42.64-14.68-65.09-22.34a533.12,533.12,0,0,0,83.55-177.14c54.41,39.09,112.72,67,177.46,83.91-30,45.21-57.75,90.41-71.68,142.3l2,1.11c7-10.91,14.33-21.66,21-32.77,12.65-21,24.64-42.36,37.5-63.2,16-25.85,37.77-44.08,68.42-50.11,43.72-8.6,84.68,29.38,71.9,74.27-.35,1.24-.46,2.55-1,5.76C612.28,271,617.57,250.25,623.57,228l38,96.16c-9.48-5.41-18.11-11.59-27.68-15.44s-20.06-5.36-30.15-7.89l-1,2.67a18.88,18.88,0,0,0,2.67,2.37c37,22.09,36.69,76.78-.31,101.72-26.48,17.85-55.65,21.14-86,13.17-33.41-8.76-66.6-18.39-99.9-27.59a21.31,21.31,0,0,0-9.41-.71c2.45,1.76,4.78,3.7,7.35,5.25,25.16,15.21,50.69,29.83,75.41,45.72,14.1,9.07,28.43,18.7,39.93,30.69,18.64,19.44,28,43.39,23,71a58.83,58.83,0,0,1-83.43,43c-2.2-1-4.35-2.16-7.06-3.51A45.09,45.09,0,0,0,463,589c-8,22.86-23.49,37.43-47.8,40.18-26.86,3-48-7.7-62.14-30.76-14.28-23.32-18.71-48.9-12.26-75.43,7.38-30.35,16.25-60.35,24.88-92-1.36,2-2.14,2.73-2.49,3.65-18.39,49.72-38.07,99-54.48,149.39-7,21.36-6.79,45-10.38,67.52-1.11,7-3.94,13.63-6,20.43Z" fill="#fff"/>
 <path class="cls-3" d="m281.78 457.7c5.09 31.11-2.24 50-23.15 60.31a47 47 0 0 1-55.42-10c-15.31-16.54-16.4-37.89-3.13-61-11.15 0.43-15.82 7.27-33.39 49.2l-29.1-82.48c17.54 13.91 34.11 23.42 55.41 19.94-25-12.69-37.13-31.78-30-59.76a44.49 44.49 0 0 1 41.81-33.31c24.61-0.81 40.36 12 48.74 34.94 19.35-14.65 39.42-17.14 59.81-3.32 15.94 10.81 23.19 30.58 17.86 49.77-6.79 24.7-24.98 34.94-49.44 35.71z" fill="#fff"/>
</svg>
