<svg viewBox="0 0 56 40" xmlns="http://www.w3.org/2000/svg"><g id="Page-1" fill="none" fill-rule="evenodd"><g id="009---Slot-Machine-Cherries" fill="#fff" fill-rule="nonzero"><path id="Shape" d="m2 40h15v-40h-15c-1.1045695 0-2 .8954305-2 2v36c0 1.1045695.8954305 2 2 2zm1-38h11c.5522847 0 1 .44771525 1 1s-.4477153 1-1 1h-11c-.55228475 0-1-.44771525-1-1s.44771525-1 1-1zm2.2 18.081c.86114138-3.1086024 2.68078806-5.866417 5.2-7.881.4418278-.3313708 1.0686292-.2418278 1.4.2s.2418278 1.0686292-.2 1.4c-.7260864.5504616-1.3793139 1.1909202-1.944 1.906 1.1922023 1.1991689 1.9805047 2.7404663 2.255 4.409 1.6025174.3720489 2.8129675 1.6886432 3.0493212 3.3167155.2363536 1.6280723-.549748 3.2345138-1.9803181 4.0468879s-3.21290933.6644665-4.4900031-.3726034c-1.29079419 1.0350138-3.08635745 1.1662756-4.51395031.329985-1.42759286-.8362905-2.19115945-2.4667025-1.91956571-4.0987687.27159375-1.6320662 1.52202441-2.9273269 3.14351602-3.2562163zm-2.2 15.919h11c.5522847 0 1 .4477153 1 1s-.4477153 1-1 1h-11c-.55228475 0-1-.4477153-1-1s.44771525-1 1-1z" fill="#fff"/><path id="Shape" d="m29 24c-.0001985.5194126-.1021165 1.0337588-.3 1.514.3599369.3144925.8220266.487243 1.3.486 1.1045695 0 2-.8954305 2-2s-.8954305-2-2-2c-.4779734-.001243-.9400631.1715075-1.3.486.1979829.4802112.2999049.9945772.3 1.514z" fill="#fff"/><path id="Shape" d="m26.255 20.221c.4484145.1491019.866633.3770056 1.235.673.413224-.3346283.8892377-.5831755 1.4-.731-.2164142-1.0257717-.6953626-1.977811-1.39-2.763-.5089388.8960084-.9260566 1.8411403-1.245 2.821z" fill="#fff"/><circle id="Oval" cx="6" cy="24" r="2" fill="#fff"/><path id="Shape" d="m10 24c-.00019852.5194126-.10211652 1.0337588-.3 1.514.3599369.3144925.8220266.487243 1.3.486 1.1045695 0 2-.8954305 2-2s-.8954305-2-2-2c-.4779734-.001243-.9400631.1715075-1.3.486.19798293.4802112.29990486.9945772.3 1.514z" fill="#fff"/><circle id="Oval" cx="25" cy="24" r="2" fill="#fff"/><path id="Shape" d="m9.888 20.163c-.21583526-1.0255719-.69408522-1.9775925-1.388-2.763-.51037911.8961675-.92884054 1.8416424-1.249 2.822.44841448.1491019.86663299.3770056 1.235.673.4137332-.3352198.890454-.5841211 1.402-.732z" fill="#fff"/><path id="Shape" d="m56 38v-36c0-1.1045695-.8954305-2-2-2h-15v40h15c1.1045695 0 2-.8954305 2-2zm-14-36h11c.5522847 0 1 .44771525 1 1s-.4477153 1-1 1h-11c-.5522847 0-1-.44771525-1-1s.4477153-1 1-1zm2.2 18.081c.8611414-3.1086024 2.6807881-5.866417 5.2-7.881.4418278-.3313708 1.0686292-.2418278 1.4.2s.2418278 1.0686292-.2 1.4c-.7260864.5504616-1.3793139 1.1909202-1.944 1.906 1.1922023 1.1991689 1.9805047 2.7404663 2.255 4.409 1.6025174.3720489 2.8129675 1.6886432 3.0493212 3.3167155.2363536 1.6280723-.549748 3.2345138-1.9803181 4.0468879s-3.2129093.6644665-4.4900031-.3726034c-1.2907942 1.0350138-3.0863575 1.1662756-4.5139503.329985-1.4275929-.8362905-2.1911595-2.4667025-1.9195657-4.0987687.2715937-1.6320662 1.5220244-2.9273269 3.143516-3.2562163zm8.8 17.919h-11c-.5522847 0-1-.4477153-1-1s.4477153-1 1-1h11c.5522847 0 1 .4477153 1 1s-.4477153 1-1 1z" fill="#fff"/><circle id="Oval" cx="45" cy="24" r="2" fill="#fff"/><path id="Shape" d="m48.888 20.163c-.2158353-1.0255719-.6940852-1.9775925-1.388-2.763-.5103791.8961675-.9288405 1.8416424-1.249 2.822.4484145.1491019.866633.3770056 1.235.673.4137332-.3352198.890454-.5841211 1.402-.732z" fill="#fff"/><path id="Shape" d="m37 0h-18v40h18zm-6.089 20.115c1.6025174.3720489 2.8129675 1.6886432 3.0493212 3.3167155.2363536 1.6280723-.549748 3.2345138-1.9803181 4.0468879s-3.2129093.6644665-4.4900031-.3726034c-1.2907942 1.0350138-3.0863575 1.1662756-4.5139503.329985-1.4275929-.8362905-2.1911595-2.4667025-1.9195657-4.0987687.2715937-1.6320662 1.5220244-2.9273269 3.143516-3.2562163.8611414-3.1086024 2.6807881-5.866417 5.2-7.881.4418278-.3313708 1.0686292-.2418278 1.4.2s.2418278 1.0686292-.2 1.4c-.7260864.5504616-1.3793139 1.1909202-1.944 1.906 1.1922023 1.1991689 1.9805047 2.7404663 2.255 4.409zm3.089 17.885h-12c-.5522847 0-1-.4477153-1-1s.4477153-1 1-1h12c.5522847 0 1 .4477153 1 1s-.4477153 1-1 1zm0-34h-12c-.5522847 0-1-.44771525-1-1s.4477153-1 1-1h12c.5522847 0 1 .44771525 1 1s-.4477153 1-1 1z" fill="#fff"/><path id="Shape" d="m49 24c-.0001985.5194126-.1021165 1.0337588-.3 1.514.3599369.3144925.8220266.487243 1.3.486 1.1045695 0 2-.8954305 2-2s-.8954305-2-2-2c-.4779734-.001243-.9400631.1715075-1.3.486.1979829.4802112.2999049.9945772.3 1.514z" fill="#fff"/></g></g></svg>