<svg id="Glyph" viewBox="0 0 64 64" xmlns="http://www.w3.org/2000/svg"><path d="m59.186 30.66449-26.30178-24.81274a1.29345 1.29345 0 0 0 -1.77546.00018l-26.28906 24.81256a2.5813 2.5813 0 0 0 1.77216 4.46265h4.73425v19.49322a3.88052 3.88052 0 0 0 3.88056 3.88049h8.2008a1.29348 1.29348 0 0 0 1.29353-1.29351v-10.81379a3.88053 3.88053 0 0 1 3.88054-3.88055h6.84259a3.88054 3.88054 0 0 1 3.88056 3.88055v10.81379a1.29348 1.29348 0 0 0 1.29352 1.29351h8.18792a3.88052 3.88052 0 0 0 3.88056-3.88049v-19.49322h4.74719a2.58392 2.58392 0 0 0 1.77212-4.46265z" fill="#fff"/></svg>