<svg viewBox="0 -11 384 384" xmlns="http://www.w3.org/2000/svg"><path d="m373.332031 0h-277.332031c-5.890625 0-10.667969 4.777344-10.667969 10.667969v320c-.039062 11.574219-3.878906 22.820312-10.933593 32h256.269531c29.441406-.03125 53.300781-23.890625 53.332031-53.335938v-298.664062c0-5.890625-4.777344-10.667969-10.667969-10.667969zm-64 277.332031h-149.332031c-5.890625 0-10.667969-4.773437-10.667969-10.664062s4.777344-10.667969 10.667969-10.667969h149.332031c5.890625 0 10.667969 4.777344 10.667969 10.667969s-4.777344 10.664062-10.667969 10.664062zm0-64h-149.332031c-5.890625 0-10.667969-4.773437-10.667969-10.664062s4.777344-10.667969 10.667969-10.667969h149.332031c5.890625 0 10.667969 4.777344 10.667969 10.667969s-4.777344 10.664062-10.667969 10.664062zm0-64h-149.332031c-5.890625 0-10.667969-4.773437-10.667969-10.664062s4.777344-10.667969 10.667969-10.667969h149.332031c5.890625 0 10.667969 4.777344 10.667969 10.667969s-4.777344 10.664062-10.667969 10.664062zm0-64h-149.332031c-5.890625 0-10.667969-4.773437-10.667969-10.664062s4.777344-10.667969 10.667969-10.667969h149.332031c5.890625 0 10.667969 4.777344 10.667969 10.667969s-4.777344 10.664062-10.667969 10.664062zm0 0" fill="#fff"/><path d="m53.332031 42.667969h-42.664062c-5.890625 0-10.667969 4.773437-10.667969 10.664062v277.335938c0 17.671875 14.328125 32 32 32s32-14.328125 32-32v-277.335938c0-5.890625-4.777344-10.664062-10.667969-10.664062zm0 0" fill="#fff"/></svg>