<?xml version="1.0" encoding="utf-8"?>
<!-- Generator: Adobe Illustrator 25.2.1, SVG Export Plug-In . SVG Version: 6.00 Build 0)  -->
<svg version="1.1" id="Layer_1" xmlns="http://www.w3.org/2000/svg" xmlns:xlink="http://www.w3.org/1999/xlink" x="0px" y="0px"
	 viewBox="0 0 100 100" style="enable-background:new 0 0 100 100;" xml:space="preserve">
<style type="text/css">
	.st0{fill:#C00500;}
	.st1{fill:#FFFFFF;}
	.st2{fill:#D7241D;}
	.st3{fill:#F1413D;}
	.st4{fill:#FFFFFF;stroke:#D7241D;stroke-miterlimit:10;}
</style>
<path class="st0" d="M76.15,86.63H8.42c-2.76,0-5-2.24-5-5v-63.3c0-2.76,2.24-5,5-5h67.73c2.76,0,5,2.24,5,5v63.3
	C81.15,84.39,78.91,86.63,76.15,86.63z"/>
<path class="st1" d="M73.15,82.6H11.42c-2.76,0-5-2.24-5-5V22.36c0-2.76,2.24-5,5-5h61.73c2.76,0,5,2.24,5,5V77.6
	C78.15,80.36,75.91,82.6,73.15,82.6z"/>
<path class="st2" d="M10.42,21.47h7.41v22.63h-7.41V21.47z"/>
<path class="st2" d="M48.36,32.76c0,6.6-5.69,11.33-13.7,11.33H23.92V21.47h10.74C42.7,21.47,48.36,26.15,48.36,32.76z M40.87,32.76
	c0-3.36-2.62-5.59-6.55-5.59h-3.05v11.21h3.05C38.25,38.39,40.87,36.1,40.87,32.76z"/>
<path class="st2" d="M61.95,37.17H59.3v6.92h-7.31V21.47h11.5c5.72,0,9.87,3.28,9.87,8.01c0,2.78-1.59,5.05-4.21,6.39l5.27,8.23
	h-8.16L61.95,37.17z M59.3,31.92h3.34c2.04,0,3.22-1.05,3.22-2.46s-1.18-2.45-3.22-2.45H59.3V31.92z"/>
<path class="st0" d="M93.09,52.22h-3.53v24.71h1.53c1.1,0,2-0.9,2-2V52.22z"/>
<rect x="81.32" y="72.22" class="st0" width="9.41" height="4.71"/>
<path class="st0" d="M84.03,81.63h-3.88V68.69h3.88c1.1,0,2,0.9,2,2v8.94C86.03,80.73,85.13,81.63,84.03,81.63z"/>
<rect x="10.15" y="48.63" class="st0" width="31" height="31"/>
<rect x="43.15" y="48.63" class="st0" width="31" height="31"/>
<rect x="11.3" y="49.17" class="st3" width="28.7" height="15.46"/>
<rect x="44.3" y="49.17" class="st3" width="28.7" height="6.46"/>
<path class="st4" d="M33.91,69.59h-1.81v3.06h-5.13v-3.06h-9.59v-0.83l6.4-13.14h5.31l-4.95,10.16h3.2l1.17-3.75h3.6v3.75h1.81
	V69.59z"/>
<path class="st4" d="M58.54,55.24c4.47,0,7.55,2.34,7.55,5.68c0,3.46-3.11,5.93-7.47,5.93c-4.35,0-7.42-2.44-7.42-5.9h5.13
	c0,1.16,0.95,1.98,2.3,1.98c1.31,0,2.27-0.86,2.27-2.01c0-1.22-1.01-2.06-2.47-2.06h-6.22l-0.51-0.56l1.12-8.88h11.85v3.88h-7.72
	l-0.25,1.94L58.54,55.24L58.54,55.24z"/>
<circle class="st0" cx="91.32" cy="47.51" r="5.88"/>
</svg>
