<?xml version="1.0" encoding="utf-8"?>
<!-- Generator: Adobe Illustrator 18.0.0, SVG Export Plug-In . SVG Version: 6.00 Build 0)  -->
<!DOCTYPE svg PUBLIC "-//W3C//DTD SVG 1.1//EN" "http://www.w3.org/Graphics/SVG/1.1/DTD/svg11.dtd">
<svg version="1.1" id="Capa_1" xmlns="http://www.w3.org/2000/svg" xmlns:xlink="http://www.w3.org/1999/xlink" x="0px" y="0px"
	 viewBox="0 0 400 120" enable-background="new 0 0 400 120" xml:space="preserve">
<g>
	<path fill="#1976D2" d="M80,19.4H18.4c-5.7,0-10.3,4.6-10.3,10.3v61.7c0,5.7,4.6,10.3,10.3,10.3H80c5.7,0,10.3-4.6,10.3-10.3V29.7
		C90.3,24,85.7,19.4,80,19.4z"/>
	<path fill="#FAFAFA" d="M77.4,60.5H64.6V50.2c0-2.8,2.3-2.6,5.1-2.6h5.1V34.8H64.6l0,0c-8.5,0-15.4,6.9-15.4,15.4v10.3H38.9v12.8
		h10.3v28.3h15.4V73.3h7.7L77.4,60.5z"/>
</g>
<g>
	<path fill-rule="evenodd" clip-rule="evenodd" fill="#FFFFFF" d="M241.6,34.2c4-0.7,8-1.3,12.1-2c0,6.3,0,12.5,0,18.7
		c1.6-0.3,3.2-0.8,4.8-1c3.9-0.5,7.8-0.5,11.6,0.7c3.6,1.2,5.6,3.8,6.2,7.4c0.3,2,0.5,4.1,0.5,6.1c0,4,0,8.1-0.2,12.1
		c-0.2,3.9-1.3,7.5-4.5,10c-2.2,1.7-4.7,2.5-7.3,2.9c-5.3,0.9-10.6,0.7-15.9,0c-2.2-0.3-4.3-0.6-6.5-0.9c-0.6-0.1-0.8-0.3-0.8-0.9
		c0-0.4,0-0.7,0-1.1c0-17,0-34,0-51C241.5,35,241.6,34.7,241.6,34.2z M253.7,79.6c2.4,0.3,4.6,0.4,6.9-0.1c2.4-0.5,3.6-1.8,3.8-4.3
		c0.2-3.8,0.2-7.5,0.1-11.3c-0.1-2.6-1.2-3.7-3.7-4.1c-2.4-0.4-4.6,0.3-6.7,1.4c-0.2,0.1-0.4,0.5-0.4,0.8c0,3.4,0,6.8,0,10.1
		C253.7,74.6,253.7,77.1,253.7,79.6z"/>
	<path fill-rule="evenodd" clip-rule="evenodd" fill="#FFFFFF" d="M392.9,89.3c-0.8,0-1.5,0-2.2,0c-3.3,0-6.7,0-10,0
		c-0.7,0-1.1-0.2-1.5-0.8c-3.3-5.5-6.6-11-9.8-16.4c-0.1-0.1-0.2-0.3-0.4-0.6c0,6.1,0,11.9,0,17.8c-0.4,0-0.7,0-1,0
		c-3.4,0-6.8,0-10.2,0c-0.8,0-1-0.2-1-1c0-3.8,0-7.7,0-11.5c0-13.8,0-27.6,0-41.4c0-1.2,0-1.2,1.2-1.4c3.3-0.5,6.7-1.1,10-1.7
		c0.3,0,0.6-0.1,1-0.1c0,11.6,0,23.1,0,34.7c0.1,0,0.1,0,0.2,0.1c0.3-0.5,0.6-0.9,0.9-1.4c3.1-4.9,6.1-9.7,9.2-14.6
		c0.4-0.6,0.8-0.9,1.6-0.9c3.6,0.1,7.2,0,10.8,0c0.4,0,0.8,0,1.4,0c-0.2,0.4-0.3,0.7-0.5,0.9c-3.6,5.8-7.3,11.5-10.9,17.3
		c-0.4,0.6-0.5,1.1-0.1,1.8c3.7,6.1,7.4,12.3,11.1,18.5C392.6,88.8,392.7,88.9,392.9,89.3z"/>
	<path fill-rule="evenodd" clip-rule="evenodd" fill="#FFFFFF" d="M236.6,78.4c0,0.3,0.1,0.6,0.1,0.8c0,2.7,0,5.5,0,8.2
		c0,0.6-0.1,0.8-0.8,1c-5.5,1.2-11,1.6-16.6,1.3c-2.6-0.1-5.2-0.7-7.6-1.8c-4.4-2.1-6.9-5.6-7.7-10.3c-0.3-1.7-0.3-3.4-0.4-5.2
		c-0.1-3-0.1-6,0-9c0.1-3.3,1-6.5,3.3-9.1c2-2.2,4.5-3.5,7.4-4.1c4.9-1,9.7-1.1,14.5,0.5c4.9,1.7,7.9,5.2,8.5,10.3
		c0.5,4,0.4,8,0.6,12.2c-0.6,0-0.9,0-1.3,0c-6.6,0-13.2,0-19.9,0c-0.8,0-1,0.2-1,1c0.1,0.6,0,1.2,0.1,1.8c0.4,2,1.5,3.2,3.6,3.3
		c2.5,0.2,5,0.3,7.5,0.1c3-0.2,6-0.7,9-1.1C236.3,78.4,236.4,78.4,236.6,78.4z M220.7,65.1c0.8,0,1.6,0,2.4,0c2.6,0,2.6,0,2.4-2.6
		c-0.2-1.8-1.1-3.1-2.9-3.4c-1.2-0.2-2.5-0.2-3.7,0c-1.5,0.2-2.5,1.1-2.8,2.7c-0.2,0.9-0.2,1.8-0.2,2.7c-0.1,0.6,0.2,0.8,0.8,0.7
		C217.9,65.1,219.3,65.1,220.7,65.1z"/>
	<path fill-rule="evenodd" clip-rule="evenodd" fill="#FFFFFF" d="M353.6,69.6c-0.2,2.7-0.1,5.4-0.5,8c-0.9,6.1-4.5,9.9-10.5,11.4
		c-4.9,1.2-9.9,1.2-14.8-0.4c-5.3-1.7-8.3-5.4-9.2-10.8c-0.3-2-0.3-4-0.4-6c0-2.9-0.1-5.9,0.2-8.8c0.6-6.9,4.5-11.2,11.4-12.7
		c4.8-1,9.5-0.9,14.2,0.6c5.2,1.7,8.2,5.3,9,10.6C353.5,64.2,353.4,67,353.6,69.6z M341.2,69.7C341.2,69.7,341.2,69.7,341.2,69.7
		c0-1.9,0-3.8,0-5.7c0-1.8-1.2-3.3-2.9-3.9c-1.4-0.4-2.9-0.5-4.4-0.1c-2,0.5-3.3,1.9-3.3,3.8c-0.1,3.9-0.1,7.8,0,11.7
		c0,1.9,1.2,3.3,3,3.8c1.1,0.3,2.2,0.4,3.3,0.3c2.7-0.2,4.3-1.9,4.3-4.7C341.3,73.2,341.2,71.5,341.2,69.7z"/>
	<path fill-rule="evenodd" clip-rule="evenodd" fill="#FFFFFF" d="M315.3,70.1c-0.2,2.5-0.2,5.4-0.7,8.3c-1,5.9-4.8,9.4-10.6,10.7
		c-4.7,1.1-9.3,1-14-0.3c-5.5-1.6-8.7-5.2-9.7-10.8c-0.2-1.4-0.3-2.8-0.4-4.1c0-3.2-0.1-6.5,0-9.7c0.2-4.1,1.4-7.9,4.6-10.7
		c2.2-1.9,4.8-2.9,7.7-3.4c4.7-0.8,9.3-0.7,13.8,0.9c5,1.8,7.8,5.5,8.6,10.7C315.1,64.3,315.1,67,315.3,70.1z M292.2,69.7
		C292.2,69.7,292.2,69.7,292.2,69.7c-0.1,1.7-0.1,3.5-0.1,5.2c0,0.3,0,0.5,0.1,0.8c0.2,1.8,1.1,3.2,2.9,3.6c1.1,0.3,2.4,0.4,3.6,0.3
		c2.6-0.2,4.2-2,4.2-4.3c0-3.7,0-7.4,0-11.1c0-2-1.2-3.5-3.1-4c-1.5-0.4-3-0.4-4.5,0c-1.8,0.5-3,1.9-3,3.8
		C292.1,65.8,292.2,67.7,292.2,69.7z"/>
	<path fill-rule="evenodd" clip-rule="evenodd" fill="#FFFFFF" d="M155.7,87.2c-2.3,0.7-4.5,1.6-6.7,2.1c-2.7,0.6-5.4,0.8-8.1,0
		c-4.3-1.2-6.6-4.1-7.5-8.4c-0.4-2.1-0.4-4.2,0.1-6.3c0.8-3.9,3.3-6.2,7.1-7c1.8-0.4,3.6-0.5,5.4-0.6c2.4-0.1,4.9-0.1,7.3,0
		c0.7,0,1-0.2,0.9-0.9c-0.1-0.6-0.1-1.2-0.1-1.8c0.1-3.1-1.5-3.8-3.9-3.9c-3.9-0.2-7.9-0.1-11.8-0.2c-0.3,0-0.7,0-1.2,0
		c0.1-1,0.1-1.8,0.2-2.7c0.2-2.3,0.4-4.6,0.7-6.9c0-0.2,0.4-0.5,0.6-0.5c5.1,0,10.1,0,15.2,0.2c1.6,0.1,3.3,0.5,4.8,0.9
		c4.3,1.2,6.5,4.3,7.1,8.6c0.3,1.8,0.4,3.6,0.4,5.4c0,7.7,0,15.3,0,23c0,0.8-0.2,1.1-1.1,1.1c-2.7-0.1-5.4-0.1-8.2,0
		c-0.8,0-1.1-0.3-1.1-1C155.9,88,155.8,87.5,155.7,87.2z M150.5,75.4C150.5,75.4,150.5,75.4,150.5,75.4c-0.9,0-1.8,0-2.7,0
		c-1.8,0.1-2.5,0.9-2.5,2.6c0,2,1,2.9,3,3.1c1.9,0.1,3.7-0.5,5.4-1.4c0.2-0.1,0.4-0.5,0.4-0.8c0.1-0.9,0-1.8,0-2.8
		c0-0.6-0.2-0.8-0.8-0.7C152.4,75.4,151.4,75.4,150.5,75.4z"/>
	<path fill-rule="evenodd" clip-rule="evenodd" fill="#FFFFFF" d="M134.3,31.1c0,2.4,0,4.6,0,6.8c0,0.9,0,1.8,0,2.8
		c0,0.6-0.2,0.8-0.7,0.8c-1.6,0-3.2,0-4.8,0c-0.5,0-1.1,0.1-1.6,0.2c-1,0.3-1.7,0.9-1.7,2c-0.1,2.1,0,4.3,0,6.5c2.9,0,5.8,0,8.9,0
		c-0.2,1.6-0.3,3.1-0.4,4.6c-0.2,1.5-0.4,3-0.5,4.6c-0.1,0.7-0.2,1-1,1c-2.3-0.1-4.7,0-7.1,0c0,9.7,0,19.2,0,28.9c-4.1,0-8,0-12.1,0
		c0-0.4-0.1-0.8-0.1-1.2c0-8.9,0-17.8,0-26.6c0-0.8-0.2-1.1-1-1.1c-1.6,0.1-3.2,0-4.9,0c0-0.4,0-0.7,0-1c0-2.6,0-5.2,0-7.8
		c0-1.5-0.2-1.3,1.3-1.3c1.3,0,2.6,0,3.9,0c0.6,0,0.8-0.2,0.8-0.8c0-2.4,0-4.8,0.1-7.2c0.2-3,1-5.8,3.3-8c1.7-1.6,3.8-2.5,6.1-2.7
		C126.4,31.2,130.3,31.2,134.3,31.1z"/>
	<path fill-rule="evenodd" clip-rule="evenodd" fill="#FFFFFF" d="M200.2,61.1c-1.9-0.3-3.7-0.6-5.5-0.9c-3.1-0.4-6.1-0.8-9.2-0.1
		c-1.9,0.4-3.1,1.6-3.1,3.6c-0.1,4-0.1,8,0,12c0,1.9,1.1,3.2,2.9,3.5c2.2,0.3,4.5,0.4,6.7,0.3c2.5-0.2,5-0.7,7.5-1.1
		c0.2,0,0.3,0,0.6,0c0,0.2,0.1,0.4,0.1,0.7c0,2.8,0,5.6,0,8.4c0,0.5-0.1,0.8-0.7,0.9c-4.5,1-9,1.6-13.7,1.3c-4.1-0.3-7.9-1.2-11.1-4
		c-2.7-2.4-4.2-5.5-4.4-8.9c-0.3-4.3-0.4-8.6-0.2-12.9c0.3-4.9,2.2-9,6.6-11.6c2.4-1.5,5.1-2.2,7.9-2.5c5-0.5,10,0.1,14.8,1.2
		c0.3,0.1,0.7,0.4,0.7,0.6C200.3,54.8,200.2,57.8,200.2,61.1z"/>
</g>
</svg>
