<?xml version="1.0" encoding="utf-8"?>
<!-- Generator: Adobe Illustrator 25.2.1, SVG Export Plug-In . SVG Version: 6.00 Build 0)  -->
<svg version="1.1" id="Layer_1" xmlns="http://www.w3.org/2000/svg" xmlns:xlink="http://www.w3.org/1999/xlink" x="0px" y="0px"
	 viewBox="0 0 300 100" style="enable-background:new 0 0 300 100;" xml:space="preserve">
<style type="text/css">
	.st0{fill:#C00500;}
	.st1{fill:#FFFFFF;}
	.st2{fill:#F1413D;}
	.st3{fill:#FFFFFF;stroke:#D7241D;stroke-miterlimit:10;}
</style>
<path class="st0" d="M264.16,83.54H11.38c-2.76,0-5-2.24-5-5V21.73c0-2.76,2.24-5,5-5h252.78c2.76,0,5,2.24,5,5v56.81
	C269.16,81.3,266.92,83.54,264.16,83.54z"/>
<path class="st1" d="M258.9,79.86H16.63c-2.76,0-5-2.24-5-5V25.4c0-2.76,2.24-5,5-5H258.9c2.76,0,5,2.24,5,5v49.46
	C263.9,77.62,261.66,79.86,258.9,79.86z"/>
<path class="st0" d="M286.89,32.45h-5.24v36.68h3.24c1.1,0,2-0.9,2-2V32.45z"/>
<rect x="269.42" y="62.14" class="st0" width="13.97" height="6.99"/>
<path class="st0" d="M274.41,76.11h-6.73V56.9h6.73c1.1,0,2,0.9,2,2v15.21C276.41,75.22,275.51,76.11,274.41,76.11z"/>
<rect x="16.77" y="27.12" class="st0" width="46.02" height="46.02"/>
<rect x="65.76" y="27.12" class="st0" width="46.02" height="46.02"/>
<rect x="114.76" y="27.12" class="st0" width="46.02" height="46.02"/>
<rect x="163.75" y="27.12" class="st0" width="46.02" height="46.02"/>
<rect x="212.74" y="27.12" class="st0" width="46.02" height="46.02"/>
<rect x="18.48" y="27.92" class="st2" width="42.61" height="22.95"/>
<rect x="67.47" y="27.92" class="st2" width="42.61" height="22.95"/>
<rect x="116.46" y="27.92" class="st2" width="42.61" height="22.95"/>
<rect x="165.45" y="27.92" class="st2" width="42.61" height="22.95"/>
<rect x="214.45" y="27.92" class="st2" width="42.61" height="9.59"/>
<path class="st3" d="M35.42,36.82h8.72v26.62h-8.72V36.82z"/>
<path class="st3" d="M103.15,50.11c0,7.77-6.69,13.33-16.12,13.33H74.4V36.82h12.64C96.49,36.82,103.15,42.33,103.15,50.11z
	 M94.33,50.11c0-3.95-3.08-6.57-7.71-6.57h-3.59v13.19h3.59C91.25,56.73,94.33,54.04,94.33,50.11z"/>
<path class="st3" d="M136.29,55.3h-3.12v8.15h-8.6V36.82h13.53c6.73,0,11.61,3.86,11.61,9.42c0,3.27-1.87,5.94-4.96,7.52l6.2,9.68
	h-9.6L136.29,55.3z M133.18,49.12h3.93c2.4,0,3.79-1.23,3.79-2.9s-1.38-2.88-3.79-2.88h-3.93V49.12z"/>
<path class="st3" d="M199.03,58.23h-2.68v4.54h-7.62v-4.54h-14.24V57l9.5-19.51h7.88l-7.35,15.08h4.74l1.74-5.57h5.35v5.57h2.68
	V58.23z"/>
<path class="st3" d="M235.6,36.94c6.64,0,11.21,3.47,11.21,8.43c0,5.14-4.62,8.8-11.09,8.8c-6.46,0-11.02-3.63-11.02-8.76h7.61
	c0,1.72,1.42,2.95,3.41,2.95c1.95,0,3.37-1.27,3.37-2.99c0-1.82-1.49-3.06-3.67-3.06h-9.23l-0.76-0.84l1.66-13.19h17.59v5.77h-11.47
	l-0.37,2.89L235.6,36.94L235.6,36.94z"/>
<circle class="st0" cx="284.27" cy="25.46" r="8.73"/>
</svg>
