<?xml version="1.0" encoding="utf-8"?>
<!-- Generator: Adobe Illustrator 18.0.0, SVG Export Plug-In . SVG Version: 6.00 Build 0)  -->
<!DOCTYPE svg PUBLIC "-//W3C//DTD SVG 1.1//EN" "http://www.w3.org/Graphics/SVG/1.1/DTD/svg11.dtd">
<svg version="1.1" id="Capa_1" xmlns="http://www.w3.org/2000/svg" xmlns:xlink="http://www.w3.org/1999/xlink" x="0px" y="0px"
	 viewBox="0 0 400 120" enable-background="new 0 0 400 120" xml:space="preserve">
<path fill="#00BF22" d="M62.3,21c-21.1,0-38.2,17.1-38.2,38.2c0,6.9,1.8,13.4,5.1,19l-5.1,19.2l14.6-8.1c6.5,5.1,14.7,8.1,23.5,8.1
	c21.1,0,38.2-17.1,38.2-38.2C100.5,38.1,83.4,21,62.3,21z"/>
<g>
	<path fill-rule="evenodd" clip-rule="evenodd" fill="#FFFFFF" d="M80.2,68c-1-0.5-5.9-3.2-6.8-3.6c-0.9-0.4-1.6-0.6-2.3,0.4
		c-0.7,1-2.8,3.2-3.4,3.9c-0.6,0.7-1.2,0.7-2.2,0.2c-1-0.5-4.2-1.8-8-5.4c-2.9-2.8-4.9-6.2-5.4-7.3c-0.6-1,0-1.6,0.5-2.1
		c0.5-0.4,1.1-1.2,1.6-1.7c0.5-0.6,0.7-1,1.1-1.7c0.4-0.7,0.2-1.3,0-1.8c-0.2-0.5-2.1-5.6-2.9-7.7c-0.8-2.1-1.6-1.8-2.2-1.8
		c-0.6,0-1.3-0.1-2-0.2c-0.7,0-1.8,0.2-2.8,1.2c-1,1-3.7,3.4-3.9,8.4c-0.2,5,3.3,10,3.8,10.7c0.5,0.7,6.6,11.6,16.9,16.1
		c10.2,4.5,10.3,3.1,12.2,3c1.9-0.1,6.1-2.2,7.1-4.6c0.9-2.4,1-4.4,0.8-4.8C81.9,68.9,81.2,68.6,80.2,68L80.2,68z M61.5,92.2
		c-6.8,0-13.1-2-18.3-5.5l-12.8,4.1l4.2-12.4c-4-5.5-6.3-12.2-6.3-19.5c0-18.4,14.9-33.3,33.3-33.3c18.4,0,33.3,14.9,33.3,33.3
		C94.8,77.3,79.8,92.2,61.5,92.2L61.5,92.2z M61.5,19c-22.1,0-40,17.9-40,40c0,7.6,2.1,14.6,5.7,20.6L20,101L42.2,94
		c5.7,3.2,12.3,5,19.3,5c22.1,0,40-17.9,40-40C101.5,36.9,83.6,19,61.5,19L61.5,19z"/>
</g>
<g>
	<path fill="#FFFFFF" d="M127,86.7l-10.5-41.3h5.6l4.9,20.9c1.2,5.2,2.3,10.3,3.1,14.3h0.1c0.7-4.1,2-9,3.4-14.4l5.5-20.9h5.6l5,21
		c1.2,4.9,2.3,9.8,2.9,14.2h0.1c0.9-4.5,2-9.1,3.3-14.3l5.5-20.9h5.5l-11.7,41.3h-5.6l-5.2-21.5c-1.3-5.3-2.1-9.3-2.7-13.5h-0.1
		c-0.7,4.1-1.7,8.2-3.2,13.5l-5.9,21.5H127z"/>
	<path fill="#FFFFFF" d="M171.7,43.2h5.4v18.5h0.1c0.9-1.5,2.2-2.9,3.9-3.8c1.6-0.9,3.5-1.5,5.5-1.5c4,0,10.4,2.5,10.4,12.7v17.7
		h-5.4V69.7c0-4.8-1.8-8.8-6.9-8.8c-3.5,0-6.3,2.5-7.2,5.4c-0.3,0.7-0.4,1.5-0.4,2.6v17.9h-5.4V43.2z"/>
	<path fill="#FFFFFF" d="M222.2,86.7l-0.4-3.7h-0.2c-1.7,2.3-4.8,4.4-9.1,4.4c-6,0-9.1-4.2-9.1-8.5c0-7.2,6.4-11.1,17.9-11v-0.6
		c0-2.5-0.7-6.9-6.7-6.9c-2.8,0-5.6,0.9-7.7,2.2l-1.2-3.6c2.5-1.6,6-2.6,9.8-2.6c9.1,0,11.3,6.2,11.3,12.1v11.1
		c0,2.6,0.1,5.1,0.5,7.1H222.2z M221.4,71.6c-5.9-0.1-12.6,0.9-12.6,6.7c0,3.5,2.3,5.2,5.1,5.2c3.9,0,6.3-2.5,7.2-5
		c0.2-0.6,0.3-1.2,0.3-1.7V71.6z"/>
	<path fill="#FFFFFF" d="M241.5,48.5V57h7.7v4.1h-7.7v16c0,3.7,1,5.8,4,5.8c1.4,0,2.5-0.2,3.1-0.4l0.2,4c-1,0.4-2.7,0.7-4.8,0.7
		c-2.5,0-4.5-0.8-5.8-2.3c-1.5-1.6-2.1-4.2-2.1-7.7V61.1h-4.6V57h4.6v-7.1L241.5,48.5z"/>
	<path fill="#FFFFFF" d="M254.6,81.2c1.6,1,4.4,2.1,7.1,2.1c3.9,0,5.8-2,5.8-4.4c0-2.6-1.5-4-5.5-5.5c-5.3-1.9-7.9-4.8-7.9-8.4
		c0-4.8,3.9-8.7,10.2-8.7c3,0,5.6,0.9,7.3,1.8l-1.3,3.9c-1.2-0.7-3.3-1.7-6.1-1.7c-3.2,0-5,1.8-5,4c0,2.5,1.8,3.6,5.6,5
		c5.2,2,7.8,4.5,7.8,9c0,5.2-4,8.9-11.1,8.9c-3.3,0-6.3-0.8-8.3-2L254.6,81.2z"/>
	<path fill="#FFFFFF" d="M286.5,73.7l-4.3,13h-5.5l14-41.3h6.4l14.1,41.3h-5.7l-4.4-13H286.5z M300,69.5l-4-11.9
		c-0.9-2.7-1.5-5.2-2.1-7.5h-0.1c-0.6,2.5-1.3,5-2.1,7.5l-4,12H300z"/>
	<path fill="#FFFFFF" d="M317,66.7c0-3.8-0.1-6.9-0.2-9.7h4.8l0.2,5.1h0.1c2.2-3.6,5.7-5.8,10.6-5.8c7.2,0,12.6,6.1,12.6,15.1
		c0,10.7-6.5,15.9-13.5,15.9c-3.9,0-7.4-1.7-9.1-4.7h-0.1v16.1H317V66.7z M322.3,74.6c0,0.8,0.1,1.5,0.2,2.2c1,3.7,4.2,6.3,8.1,6.3
		c5.7,0,9-4.7,9-11.5c0-6-3.1-11-8.8-11c-3.7,0-7.1,2.6-8.2,6.7c-0.2,0.7-0.4,1.5-0.4,2.2V74.6z"/>
	<path fill="#FFFFFF" d="M351.9,66.7c0-3.8-0.1-6.9-0.2-9.7h4.8l0.2,5.1h0.1c2.2-3.6,5.7-5.8,10.6-5.8c7.2,0,12.6,6.1,12.6,15.1
		c0,10.7-6.5,15.9-13.5,15.9c-3.9,0-7.4-1.7-9.1-4.7h-0.1v16.1h-5.3V66.7z M357.2,74.6c0,0.8,0.1,1.5,0.2,2.2c1,3.7,4.2,6.3,8.1,6.3
		c5.7,0,9-4.7,9-11.5c0-6-3.1-11-8.8-11c-3.7,0-7.1,2.6-8.2,6.7c-0.2,0.7-0.4,1.5-0.4,2.2V74.6z"/>
</g>
</svg>
