<svg id="Layer_1" data-name="Layer 1" xmlns="http://www.w3.org/2000/svg" viewBox="0 0 152.58 68.07"><defs><style>.cls-1{fill:#191b20;}.cls-2{fill:none;stroke:#d0951b;stroke-linecap:round;stroke-linejoin:round;stroke-width:3px;}</style></defs><title>whitelist</title><path class="cls-1" d="M250.94,431l-5.38-19.7h2.11c1.42,5.51,4,15.16,4.42,17.44h0c.44-2.15,3.43-12.31,4.77-17.44H259c1.25,4.63,4.19,15.49,4.56,17.38h0c.62-3.06,3.67-13,4.9-17.38h2L264.57,431h-2.23c-1.25-4.59-4.07-15.08-4.47-17.08h0c-.55,2.73-3.36,12.35-4.7,17.08Z" transform="translate(-221.21 -386.46)"/><path class="cls-1" d="M274.91,410.2V419a4.87,4.87,0,0,1,4.57-2.59c2.14,0,4.79,1.13,4.79,5.49v9h-1.88v-8.71c0-2.63-1.16-4.1-3.39-4.1-2.69,0-4.09,1.71-4.09,5V431H273V410.2Z" transform="translate(-221.21 -386.46)"/><path class="cls-1" d="M288.71,410.2h1.89v2.89h-1.89Zm0,6.56h1.89V431h-1.89Z" transform="translate(-221.21 -386.46)"/><path class="cls-1" d="M293.24,416.76h2.55v-4.32h1.89v4.32H301v1.64h-3.27v8.81c0,1.49.34,2.31,1.67,2.31a5.09,5.09,0,0,0,1.37-.15v1.53a5.78,5.78,0,0,1-1.93.25c-2,0-3-1-3-3.32V418.4h-2.55Z" transform="translate(-221.21 -386.46)"/><path class="cls-1" d="M304.39,424.15c0,3.31,1.69,5.48,4.27,5.48a3.67,3.67,0,0,0,3.79-2.45h1.91a5.59,5.59,0,0,1-5.77,4.12c-4.38,0-6.12-3.68-6.12-7.31,0-4.13,2.07-7.57,6.29-7.57,4.47,0,5.91,3.73,5.91,6.56a11,11,0,0,1,0,1.17Zm8.34-1.46c0-2.6-1.4-4.66-4-4.66s-3.95,1.91-4.24,4.66Z" transform="translate(-221.21 -386.46)"/><path class="cls-1" d="M318.08,431V410.2H320V431Z" transform="translate(-221.21 -386.46)"/><path class="cls-1" d="M324.43,410.2h1.89v2.89h-1.89Zm0,6.56h1.89V431h-1.89Z" transform="translate(-221.21 -386.46)"/><path class="cls-1" d="M331.17,427A3.52,3.52,0,0,0,335,429.7c2.32,0,3.25-1,3.25-2.49s-.67-2.2-3.63-2.92c-3.85-.93-4.73-2.1-4.73-4s1.48-3.88,4.89-3.88,4.93,2,5.14,4H338a3.1,3.1,0,0,0-3.37-2.45c-2.25,0-2.91,1.1-2.91,2.14,0,1.2.64,1.79,3.36,2.44,4.14,1,5.07,2.36,5.07,4.48,0,2.54-2,4.24-5.28,4.24-3.43,0-5.24-1.78-5.63-4.33Z" transform="translate(-221.21 -386.46)"/><path class="cls-1" d="M341.45,416.76H344v-4.32h1.89v4.32h3.26v1.64H345.9v8.81c0,1.49.34,2.31,1.66,2.31a5,5,0,0,0,1.37-.15v1.53a5.75,5.75,0,0,1-1.93.25c-2,0-3-1-3-3.32V418.4h-2.56Z" transform="translate(-221.21 -386.46)"/><path class="cls-2" d="M222.71,436.7V405.05A17.09,17.09,0,0,1,239.8,388h50" transform="translate(-221.21 -386.46)"/><path class="cls-2" d="M372.29,404.3V436A17.09,17.09,0,0,1,355.2,453h-50" transform="translate(-221.21 -386.46)"/></svg>